<svg xmlns="http://www.w3.org/2000/svg" id="Layer_1" viewBox="0 0 127 127"><style>.st0{fill:#F26F21;}</style><path id="XMLID_118_" d="M31.8 84.5l9.4-17.7h46.3c-2.3 4-4 7-11 7H51c.6-.7-5 10.7-5 10.7H31.7zm13-24.5c3-5 6-11 6-11 1.7-2.5 3.8-5.7 10.7-5.7h26.8c6 .4 7.6 3 6.2 7.8-.4 1.2-2.6 6.6-4 9H45z" class="st0"/><path id="XMLID_110_" d="M63.5 127C28.5 127 0 98.5 0 63.5S28.5 0 63.5 0 127 28.5 127 63.5 98.5 127 63.5 127zm0-119.7c-31 0-56.2 25.2-56.2 56.2s25.2 56.2 56.2 56.2c31 0 56.2-25.2 56.2-56.2S94.5 7.3 63.5 7.3z" class="st0"/></svg>